<mxfile modified="2023-11-08T23:23:30.870Z" host="app.diagrams.net" agent="Mozilla/5.0 (Windows NT 10.0; Win64; x64) AppleWebKit/537.36 (KHTML, like Gecko) Chrome/119.0.0.0 Safari/537.36" etag="MGtdmZMf4yrd9r9RqcaQ" version="22.0.8" type="device">
  <diagram id="f106602c-feb2-e66a-4537-3a34d633f6aa" name="Page-1">
    <mxGraphModel dx="1711" dy="673" grid="1" gridSize="10" guides="1" tooltips="1" connect="1" arrows="1" fold="1" page="1" pageScale="1" pageWidth="1169" pageHeight="827" background="none" math="0" shadow="0">
      <root>
        <mxCell id="0" />
        <mxCell id="1" parent="0" />
        <mxCell id="rz01iyQKVL57jy1Aw8ig-29" value="Mobile Devices" style="sketch=0;outlineConnect=0;gradientColor=none;fontColor=#545B64;strokeColor=none;fillColor=#879196;dashed=0;verticalLabelPosition=bottom;verticalAlign=top;align=center;html=1;fontSize=12;fontStyle=0;aspect=fixed;shape=mxgraph.aws4.illustration_devices;pointerEvents=1" vertex="1" parent="1">
          <mxGeometry x="190" y="130" width="100" height="73" as="geometry" />
        </mxCell>
        <mxCell id="rz01iyQKVL57jy1Aw8ig-30" value="Web Clients" style="sketch=0;outlineConnect=0;gradientColor=none;fontColor=#545B64;strokeColor=none;fillColor=#879196;dashed=0;verticalLabelPosition=bottom;verticalAlign=top;align=center;html=1;fontSize=12;fontStyle=0;aspect=fixed;shape=mxgraph.aws4.illustration_devices;pointerEvents=1" vertex="1" parent="1">
          <mxGeometry x="190" y="348.5" width="100" height="73" as="geometry" />
        </mxCell>
        <mxCell id="rz01iyQKVL57jy1Aw8ig-31" value="Automated Tests" style="sketch=0;outlineConnect=0;gradientColor=none;fontColor=#545B64;strokeColor=none;fillColor=#879196;dashed=0;verticalLabelPosition=bottom;verticalAlign=top;align=center;html=1;fontSize=12;fontStyle=0;aspect=fixed;shape=mxgraph.aws4.illustration_devices;pointerEvents=1" vertex="1" parent="1">
          <mxGeometry x="190" y="560" width="100" height="73" as="geometry" />
        </mxCell>
        <mxCell id="rz01iyQKVL57jy1Aw8ig-46" value="" style="group" vertex="1" connectable="0" parent="1">
          <mxGeometry x="350" y="122.5" width="540" height="527.5" as="geometry" />
        </mxCell>
        <mxCell id="14" value="&lt;b&gt;Google &lt;/b&gt;Cloud Platform" style="fillColor=#F6F6F6;strokeColor=none;shadow=0;gradientColor=none;fontSize=14;align=left;spacing=10;fontColor=#717171;9E9E9E;verticalAlign=top;spacingTop=-4;fontStyle=0;spacingLeft=40;html=1;container=0;" parent="rz01iyQKVL57jy1Aw8ig-46" vertex="1">
          <mxGeometry width="540" height="527.5" as="geometry" />
        </mxCell>
        <mxCell id="15" value="" style="shape=mxgraph.gcp2.google_cloud_platform;fillColor=#F6F6F6;strokeColor=none;shadow=0;gradientColor=none;" parent="rz01iyQKVL57jy1Aw8ig-46" vertex="1">
          <mxGeometry x="12.56" y="7.24" width="28.88" height="22.76" as="geometry">
            <mxPoint x="20" y="10" as="offset" />
          </mxGeometry>
        </mxCell>
        <mxCell id="rz01iyQKVL57jy1Aw8ig-39" value="" style="group" vertex="1" connectable="0" parent="rz01iyQKVL57jy1Aw8ig-46">
          <mxGeometry x="41.44444444444446" y="240.80588699360334" width="114.66666666666667" height="45.889125799573556" as="geometry" />
        </mxCell>
        <mxCell id="rz01iyQKVL57jy1Aw8ig-26" value="API Gateway" style="strokeColor=#dddddd;shadow=1;strokeWidth=1;rounded=1;absoluteArcSize=1;arcSize=2;align=right;" vertex="1" parent="rz01iyQKVL57jy1Aw8ig-39">
          <mxGeometry width="114.66666666666667" height="45.889125799573556" as="geometry" />
        </mxCell>
        <mxCell id="rz01iyQKVL57jy1Aw8ig-25" value="" style="shape=image;verticalLabelPosition=bottom;labelBackgroundColor=default;verticalAlign=top;aspect=fixed;imageAspect=0;image=data:image/svg+xml,PHN2ZyB4bWxuczp4bGluaz0iaHR0cDovL3d3dy53My5vcmcvMTk5OS94bGluayIgeG1sbnM9Imh0dHA6Ly93d3cudzMub3JnLzIwMDAvc3ZnIiBmaWxsPSIjMDAwMDAwIiB2ZXJzaW9uPSIxLjEiIHZpZXdCb3g9IjAgMCAyNCAyNCIgaGVpZ2h0PSI4MDBweCIgd2lkdGg9IjgwMHB4Ij4mI3hhOyYjeGE7PGcgc3Ryb2tlLXdpZHRoPSIwIiBpZD0iU1ZHUmVwb19iZ0NhcnJpZXIiLz4mI3hhOyYjeGE7PGcgc3Ryb2tlLWxpbmVqb2luPSJyb3VuZCIgc3Ryb2tlLWxpbmVjYXA9InJvdW5kIiBpZD0iU1ZHUmVwb190cmFjZXJDYXJyaWVyIi8+JiN4YTsmI3hhOzxnIGlkPSJTVkdSZXBvX2ljb25DYXJyaWVyIj4gPGcgZmlsbC1ydWxlPSJldmVub2RkIiBmaWxsPSJub25lIiBzdHJva2Utd2lkdGg9IjEiIHN0cm9rZT0ibm9uZSI+IDxnIGZpbGw9IiM0Mjg1RjQiIHRyYW5zZm9ybT0idHJhbnNsYXRlKDIuMDAwMDAwLCAyLjAwMDAwMCkiPiA8cGF0aCBkPSJNMTAuMzQ2NDk0LDMuNzQ4MTEyOTNlLTEzIEMxMS4wNTU4OTE5LDMuNzQ4MTEyOTNlLTEzIDExLjY1NjEwMDEsMC4zOTMyNTcyOTMgMTIuMTQ2MzcwMywxLjA1NzIyMjk3IEMxMi41NDU3NTQsMS41OTgxMDI0MSAxMi44OTA2ODQ0LDIuMzQ0MjQwMTUgMTMuMTc2NjU3NSwzLjI1OTg5NDU1IEMxMy43Mzg5MzczLDUuMDYwMjUyNiAxNC4wNTY2MDM4LDcuNDY1MDI1MTEgMTQuMDU2NjAzOCwxMC4wMjM1ODQ5IEMxNC4wNTY2MDM4LDEyLjU4MjE0NDcgMTMuNzM4OTM3MywxNC45ODY5MTcyIDEzLjE3NjY1NzUsMTYuNzg3Mjc1MyBDMTIuODkwNjg0NCwxNy43MDI5Mjk3IDEyLjU0NTc1NCwxOC40NDkwNjc0IDEyLjE0NjM3MDMsMTguOTg5OTQ2OCBDMTEuNjU2MTAwMSwxOS42NTM5MTI1IDExLjA1NTg5MTksMjAuMDQ3MTY5OCAxMC4zNDY0OTQsMjAuMDQ3MTY5OCBDOC43MjMzMjk4MSwyMC4wNDcxNjk4IDcuNzE5MzkwNTEsMTguNjI4OTY2NSA3LjE4MzkxOTUxLDE2LjIwODUwMzUgQzcuMTY3NjM0MzQsMTYuMTM0ODkwNSA3LjE2MzUyNjMyLDE2LjA2MTU4NyA3LjE3MDMxODYsMTUuOTkwMzgzOCBMOC44MDAzMDIwNywxNS45OTA2Mjg3IEM5LjAyMDIxMjMzLDE2Ljk2OTQ1NTggOS4yOTYyMTcyOCwxNy45MzEyNTYzIDkuNjAzMjkwMzksMTguMjQ5NjE3NyBDOS44MDc5MzU0NywxOC40NjE3ODU3IDEwLjAxNTY5NTQsMTguNTM3NzM1OCAxMC4zNDY0OTQsMTguNTM3NzM1OCBDMTAuMzUyNTA1MywxOC41Mzc3MzU4IDEwLjM2MDAyOTIsMTguNTM2NTE0NyAxMC4zNzIyNjY2LDE4LjUzMjUzNTQgQzEwLjM5NTA4NjMsMTguNTI1MTE1MiAxMC40MjQwMjA0LDE4LjUxMDk1OTUgMTAuNDU4ODgxNiwxOC40ODgxMTg0IEMxMC41NTk0ODI0LDE4LjQyMjIwNDYgMTAuNjc2NTgxNSwxOC4zMDU1ODY2IDEwLjgwMDIwMDIsMTguMTM4MTcxNiBDMTEuMDg4NDk0NSwxNy43NDc3Mzg5IDExLjM2ODQ0NzEsMTcuMTQyMTU4MiAxMS42MTAyMTIxLDE2LjM2ODA1MzMgQzEyLjEyNjY5LDE0LjcxNDM0ODEgMTIuNDI2MDA3MiwxMi40NDg0ODEyIDEyLjQyNjAwNzIsMTAuMDIzNTg0OSBDMTIuNDI2MDA3Miw3LjU5ODY4ODYgMTIuMTI2NjksNS4zMzI4MjE3NCAxMS42MTAyMTIxLDMuNjc5MTE2NTQgQzExLjM2ODQ0NzEsMi45MDUwMTE2NCAxMS4wODg0OTQ1LDIuMjk5NDMwODkgMTAuODAwMjAwMiwxLjkwODk5ODE3IEMxMC42NzY1ODE1LDEuNzQxNTgzMTggMTAuNTU5NDgyNCwxLjYyNDk2NTE5IDEwLjQ1ODg4MTYsMS41NTkwNTE0NCBDMTAuNDI0MDIwNCwxLjUzNjIxMDMyIDEwLjM5NTA4NjMsMS41MjIwNTQ2MyAxMC4zNzIyNjY2LDEuNTE0NjM0MzcgQzEwLjM2MDAyOTIsMS41MTA2NTUxMSAxMC4zNTI1MDUzLDEuNTA5NDMzOTYgMTAuMzQ2NDk0LDEuNTA5NDMzOTYgQzEwLjA4MDk2MTUsMS41MDk0MzM5NiA5Ljg0NjQ3NzI5LDEuNjM0MDAyIDkuNTkwMzAwNTYsMS45NzI5NDk2OSBDOS4yNjM5NDQzMywyLjQwNDc1MTk0IDguOTc5NDYxMDEsMy4xMTAwNTMzOSA4Ljc1OTgyMTY0LDQuMTAyOTEzNzYgTDcuMDk4OTAwNjIsNC4xMDI0OTcxNCBDNy4zNjQxMTM5NSwyLjc2OTk1ODg2IDcuNzQ0MzM1MTIsMS43ODIyOTc4NSA4LjI1NDIzNzg2LDEuMTA3NjQ1MDMgQzguODAyNDkxNDUsMC4zODIyNTAxNjMgOS41MjIwMzA5MSwzLjc0ODExMjkzZS0xMyAxMC4zNDY0OTQsMy43NDgxMTI5M2UtMTMgWiBNMTAuNTY2MDM3NywxMi41IEwxMC41NjYwMzc3LDE0LjAwOTQzNCBMMi42NDE1MDk0MywxNC4wMDk0MzQgQzIuMjI0NjkwNzUsMTQuMDA5NDM0IDEuODg2NzkyNDUsMTMuNjcxNTM1NyAxLjg4Njc5MjQ1LDEzLjI1NDcxNyBDMS44ODY3OTI0NSwxMi44Mzc4OTgzIDIuMjI0NjkwNzUsMTIuNSAyLjY0MTUwOTQzLDEyLjUgTDEwLjU2NjAzNzcsMTIuNSBaIE0xOS4yNDUyODMsMTAuODk2MjY2OSBDMTkuNjYyMTAxNywxMC44OTYyNjY5IDIwLDExLjIzNDE2NTIgMjAsMTEuNjUwOTgzOSBDMjAsMTIuMDY3ODAyNSAxOS42NjIxMDE3LDEyLjQwNTcwMDggMTkuMjQ1MjgzLDEyLjQwNTcwMDggTDE1LjUwMTgyNDgsMTIuNDA2NjM4OSBDMTUuNTYzODMzMSwxMS45MTUwMTEgMTUuNjA4MTYzOSwxMS40MTA0MDQzIDE1LjYzMzkxMjMsMTAuODk2Njk2NSBMMTkuMjQ1MjgzLDEwLjg5NjI2NjkgWiBNMTAuNTY2MDM3Nyw5LjI5MjQ1MjgzIEwxMC41NjYwMzc3LDEwLjgwMTg4NjggTDAuNzU0NzE2OTgxLDEwLjgwMTg4NjggQzAuMzM3ODk4MzAyLDEwLjgwMTg4NjggLTEuODkzMzc2ODJlLTE0LDEwLjQ2Mzk4ODUgLTEuODY1MTc0NjhlLTE0LDEwLjA0NzE2OTggQy0xLjg3MDI3OTI0ZS0xNCw5LjYzMDM1MTEzIDAuMzM3ODk4MzAyLDkuMjkyNDUyODMgMC43NTQ3MTY5ODEsOS4yOTI0NTI4MyBMMTAuNTY2MDM3Nyw5LjI5MjQ1MjgzIFogTTE1LjU1MDYxNDEsNy42ODc2MzY5NSBMMTkuMjQ1MjgzLDcuNjg4NzE5NzEgQzE5LjY2MjEwMTcsNy42ODg3MTk3MSAyMCw4LjAyNjYxODAxIDIwLDguNDQzNDM2NjkgQzIwLDguODI1NTIwNDggMTkuNzE2MDcxNiw5LjE0MTI4OTIzIDE5LjM0NzY5MzYsOS4xOTEyNjM5OSBMMTkuMjQ1MjgzLDkuMTk4MTUzNjcgTDE1LjY1MDg4MzcsOS4xOTc3NzAxNSBDMTUuNjM1NTcxNSw4LjY4NTI4ODY5IDE1LjYwMTg1Nyw4LjE4MDY2MjE0IDE1LjU1MDYxNDEsNy42ODc2MzY5NSBaIE0xMC41NjYwMzc3LDYuMDg0OTA1NjYgTDEwLjU2NjAzNzcsNy41OTQzMzk2MiBMMi42NDE1MDk0Myw3LjU5NDMzOTYyIEMyLjIyNDY5MDc1LDcuNTk0MzM5NjIgMS44ODY3OTI0NSw3LjI1NjQ0MTMyIDEuODg2NzkyNDUsNi44Mzk2MjI2NCBDMS44ODY3OTI0NSw2LjQ1NzUzODg1IDIuMTcwNzIwODksNi4xNDE3NzAxIDIuNTM5MDk4ODEsNi4wOTE3OTUzNCBMMi42NDE1MDk0Myw2LjA4NDkwNTY2IEwxMC41NjYwMzc3LDYuMDg0OTA1NjYgWiI+IDwvcGF0aD4gPC9nPiA8L2c+IDwvZz4mI3hhOyYjeGE7PC9zdmc+;" vertex="1" parent="rz01iyQKVL57jy1Aw8ig-39">
          <mxGeometry x="13.56" y="11.472281449893382" width="22.00163565732979" height="22.00163565732979" as="geometry" />
        </mxCell>
        <mxCell id="rz01iyQKVL57jy1Aw8ig-52" style="edgeStyle=orthogonalEdgeStyle;rounded=0;orthogonalLoop=1;jettySize=auto;html=1;exitX=0;exitY=0.5;exitDx=0;exitDy=0;entryX=1;entryY=0.5;entryDx=0;entryDy=0;endArrow=none;endFill=0;" edge="1" parent="rz01iyQKVL57jy1Aw8ig-46" source="rz01iyQKVL57jy1Aw8ig-50" target="rz01iyQKVL57jy1Aw8ig-26">
          <mxGeometry relative="1" as="geometry" />
        </mxCell>
        <mxCell id="rz01iyQKVL57jy1Aw8ig-55" style="edgeStyle=orthogonalEdgeStyle;rounded=0;orthogonalLoop=1;jettySize=auto;html=1;exitX=1;exitY=0.25;exitDx=0;exitDy=0;entryX=0;entryY=0.25;entryDx=0;entryDy=0;endArrow=none;endFill=0;" edge="1" parent="rz01iyQKVL57jy1Aw8ig-46" source="rz01iyQKVL57jy1Aw8ig-50" target="rz01iyQKVL57jy1Aw8ig-53">
          <mxGeometry relative="1" as="geometry" />
        </mxCell>
        <mxCell id="rz01iyQKVL57jy1Aw8ig-56" style="edgeStyle=orthogonalEdgeStyle;rounded=0;orthogonalLoop=1;jettySize=auto;html=1;exitX=1;exitY=0.75;exitDx=0;exitDy=0;entryX=0;entryY=0.75;entryDx=0;entryDy=0;endArrow=none;endFill=0;" edge="1" parent="rz01iyQKVL57jy1Aw8ig-46" source="rz01iyQKVL57jy1Aw8ig-50" target="rz01iyQKVL57jy1Aw8ig-54">
          <mxGeometry relative="1" as="geometry" />
        </mxCell>
        <mxCell id="rz01iyQKVL57jy1Aw8ig-50" value="" style="strokeColor=#dddddd;shadow=1;strokeWidth=1;rounded=1;absoluteArcSize=1;arcSize=2;" vertex="1" parent="rz01iyQKVL57jy1Aw8ig-46">
          <mxGeometry x="190" y="240.80123809523806" width="120" height="50.57971428571429" as="geometry" />
        </mxCell>
        <mxCell id="rz01iyQKVL57jy1Aw8ig-51" value="Cloud&#xa;DNS" style="editableCssRules=.*;html=1;fontColor=#999999;shape=image;verticalLabelPosition=middle;labelBackgroundColor=#ffffff;verticalAlign=middle;labelPosition=right;align=left;spacingLeft=20;part=1;points=[];imageAspect=0;image=data:image/svg+xml,PHN2ZyB4bWxucz0iaHR0cDovL3d3dy53My5vcmcvMjAwMC9zdmciIHhtbG5zOnY9Imh0dHBzOi8vdmVjdGEuaW8vbmFubyIgd2lkdGg9IjIwIiBoZWlnaHQ9IjIwIiB2aWV3Qm94PSIwIDAgMjAgMjAiPiYjeGE7CTxzdHlsZSB0eXBlPSJ0ZXh0L2NzcyI+JiN4YTsJLnN0MHtmaWxsOiM0Mjg1ZjQ7fSYjeGE7CS5zdDF7ZmlsbDojNjY5ZGY2O30mI3hhOwkuc3Qye2ZpbGw6I2FlY2JmYTt9JiN4YTsJLnN0M3tmaWxsOiNmZmY7fSYjeGE7CTwvc3R5bGU+JiN4YTsJPHBhdGggY2xhc3M9InN0MCIgZD0iTTkgNmgydjEwSDl6Ii8+JiN4YTsJPHBhdGggY2xhc3M9InN0MSIgZD0iTTIwIDE3SDB2MmgyMHoiLz4mI3hhOwk8cGF0aCBjbGFzcz0ic3QyIiBkPSJNMTIgMTZIOHY0aDR6TTAgMGgyMHY2SDB6Ii8+JiN4YTsJPHBhdGggY2xhc3M9InN0MSIgZD0iTTEwIDBoMTB2NkgxMHoiLz4mI3hhOwk8cGF0aCBjbGFzcz0ic3QzIiBkPSJNMiAyaDJ2MkgyeiIvPiYjeGE7CTxwYXRoIGNsYXNzPSJzdDIiIGQ9Ik0wIDhoMjB2NkgweiIvPiYjeGE7CTxwYXRoIGNsYXNzPSJzdDEiIGQ9Ik0xMCA4aDEwdjZIMTB6Ii8+JiN4YTsJPHBhdGggY2xhc3M9InN0MyIgZD0iTTIgMTBoMnYySDJ6Ii8+JiN4YTs8L3N2Zz4=;" vertex="1" parent="rz01iyQKVL57jy1Aw8ig-50">
          <mxGeometry width="30" height="30" relative="1" as="geometry">
            <mxPoint x="15" y="15" as="offset" />
          </mxGeometry>
        </mxCell>
        <mxCell id="rz01iyQKVL57jy1Aw8ig-53" value="Cloud&#xa;Run" style="sketch=0;html=1;verticalAlign=top;labelPosition=center;verticalLabelPosition=bottom;align=center;spacingTop=-6;fontSize=11;fontStyle=1;fontColor=#999999;shape=image;aspect=fixed;imageAspect=0;image=data:image/svg+xml,PHN2ZyB4bWxucz0iaHR0cDovL3d3dy53My5vcmcvMjAwMC9zdmciIHhtbG5zOnY9Imh0dHBzOi8vdmVjdGEuaW8vbmFubyIgd2lkdGg9IjM2NS40NjQ5OTY3NzA0MjQ5MyIgaGVpZ2h0PSIzNzkuMjIyOTk0NDYzNTc3OTUiIHZpZXdCb3g9IjAgMCA5Ni42OTU5OTkxNDU1MDc4MSAxMDAuMzM1OTk4NTM1MTU2MjUiPiYjeGE7PHN0eWxlIHR5cGU9InRleHQvY3NzIj4mI3hhOwkuc3Qwe2ZpbGw6IzQyODVmNDt9JiN4YTsJLnN0MXtmaWxsOiNhZWNiZmE7fSYjeGE7PC9zdHlsZT4mI3hhOwk8cGF0aCBjbGFzcz0ic3QwIiBkPSJNMjkuNzk0IDEwMC4zMzZMNDYuOTIgNTAuMTY4aDQ5Ljc3NnpNMCA5OS42NzFsMTIuOTc2LTQ5LjUwMkgyOS4yMkwxNi44OTcgOTIuMDU0eiIvPiYjeGE7CTxwYXRoIGNsYXNzPSJzdDEiIGQ9Ik0yOS43OTQgMEw0Ni45MiA1MC4xNjhoNDkuNzc2ek0wIC42NjZsMTIuOTc2IDQ5LjUwMkgyOS4yMkwxNi44OTcgOC4yODN6Ii8+JiN4YTs8L3N2Zz4=;" vertex="1" parent="rz01iyQKVL57jy1Aw8ig-46">
          <mxGeometry x="420" y="158.25" width="40.465753424657535" height="40.465753424657535" as="geometry" />
        </mxCell>
        <mxCell id="rz01iyQKVL57jy1Aw8ig-54" value="GKE On-Prem" style="sketch=0;html=1;verticalAlign=top;labelPosition=center;verticalLabelPosition=bottom;align=center;spacingTop=-6;fontSize=11;fontStyle=1;fontColor=#999999;shape=image;aspect=fixed;imageAspect=0;image=data:image/svg+xml,PHN2ZyB4bWxucz0iaHR0cDovL3d3dy53My5vcmcvMjAwMC9zdmciIHhtbG5zOnY9Imh0dHBzOi8vdmVjdGEuaW8vbmFubyIgd2lkdGg9IjQwMi4zNDMyMDA2ODM1OTM3NSIgaGVpZ2h0PSI0MTYuMDAyNTMyOTU4OTg0NCIgdmlld0JveD0iMCAwLjAwMDQ5OTk2Mzc2MDM3NTk3NjYgNDAyLjM0MzIwMDY4MzU5Mzc1IDQxNi4wMDI1MzI5NTg5ODQ0Ij4mI3hhOwk8c3R5bGUgdHlwZT0idGV4dC9jc3MiPiYjeGE7CS5zdDB7ZmlsbDojNDI4NWY0O30mI3hhOwkuc3Qxe2ZpbGw6IzY2OWRmNjt9JiN4YTsJLnN0MntmaWxsOiNhZWNiZmE7fSYjeGE7CTwvc3R5bGU+JiN4YTsJPHBhdGggY2xhc3M9InN0MiIgZD0iTTM2Ni4xNyA5Mi4wMDNjLTE5LjA1IDAtMzYgMTYuODItMzYgMzUuNzYgMCAxMi42MiA4LjQ2IDI1LjI0IDE5LjA1IDMxLjU1djE0Ny4zbC0xMTAuMDUgNjUuMjEgMTYuOTMgMjcuMzUgMTE4LjUxLTY5LjQyYzQuMjQtMi4xIDguNDctOC40MSA4LjQ3LTE0Ljczdi0xNTUuNjdjMTIuNzEtNi4zNSAxOS4wOS0xOC45MyAxOS4wOS0zMS41NSAyLjA4LTE4Ljk0LTE0Ljg1LTM1LjgtMzYtMzUuOHptLTM4LjExLTIzLjFMMjA5LjU1IDEuNTgzYy00LjI0LTIuMTEtMTAuNTktMi4xMS0xNi45MyAwTDU3LjE3IDc5LjQxM0EzNiAzNiAwIDAgMCAzNiA3My4xMDNjLTE5IDAtMzYgMTYuODMtMzYgMzUuNzZzMTYuOTMgMzUuNzcgMzYgMzUuNzcgMzYtMTYuODMgMzYtMzUuNzdsMTI5LjEtNzMuNjIgMTEwIDYzLjExem0tMTQzLjg5IDI3Ny42OHEtOS41MyAwLTE5IDYuMzFsLTExMC02My4xMXYtMTI2LjIyaC0zNHYxMzQuNjNjMCA2LjMyIDQuMjMgMTIuNjMgOC40NiAxNC43M2wxMTguNTQgNjUuMjF2Mi4xMWMwIDE4LjkzIDE2LjkzIDM1Ljc2IDM2IDM1Ljc2czM2LTE2LjgzIDM2LTM1Ljc2LTE3LTMzLjY2LTM2LTMzLjY2eiIvPiYjeGE7CTxwYXRoIGNsYXNzPSJzdDEiIGQ9Ik05Ny4zOCAxMzYuMjEzbDEwNS44MiA1OC45MSAxMDMuNy01OC45MS0xMDMuNy02MXptLTYuMzUgNjcuMzJsMTEyLjE3IDYzLjExdi01MC40OWwtMTEyLjE3LTY1LjIxem0wIDYzLjExbDExMi4xNyA2NS4yMXYtNDQuMTdsLTExMi4xNy02NS4yMnoiLz4mI3hhOwk8cGF0aCBjbGFzcz0ic3QwIiBkPSJNMjAzLjE3IDIxNi4xMjN2NTAuNTZsMTEyLjE2LTY1LjI5di01MC4zOXptOTItMjBhOC4xNiA4LjE2IDAgMSAxIDguMTYtOC4xNiA4LjE5IDguMTkgMCAwIDEtOC4xNiA4LjE2em0tOTIgOTEuNTJ2NDQuMTZsMTEyLjE2LTY1LjEydi00NC4xNnptOTItMjIuODhhOC4xNiA4LjE2IDAgMSAxIDguMTYtOC4xNiA4LjE5IDguMTkgMCAwIDEtOC4xNiA4LjE2eiIvPiYjeGE7PC9zdmc+;" vertex="1" parent="rz01iyQKVL57jy1Aw8ig-46">
          <mxGeometry x="420" y="319.01190476190476" width="38.53881278538813" height="40.465753424657535" as="geometry" />
        </mxCell>
        <mxCell id="rz01iyQKVL57jy1Aw8ig-60" value="Cloud Domains" style="whiteSpace=wrap;html=1;shape=mxgraph.basic.document;fillColor=#f8cecc;strokeColor=#b85450;" vertex="1" parent="rz01iyQKVL57jy1Aw8ig-46">
          <mxGeometry x="270" y="292.88809523809516" width="50" height="47.223809523809514" as="geometry" />
        </mxCell>
        <mxCell id="rz01iyQKVL57jy1Aw8ig-75" value="k8s app+db" style="whiteSpace=wrap;html=1;shape=mxgraph.basic.document;fillColor=#f8cecc;strokeColor=#b85450;" vertex="1" parent="rz01iyQKVL57jy1Aw8ig-46">
          <mxGeometry x="450" y="278.82142857142856" width="50" height="47.223809523809514" as="geometry" />
        </mxCell>
        <mxCell id="rz01iyQKVL57jy1Aw8ig-76" value="Fake Payment API" style="whiteSpace=wrap;html=1;shape=mxgraph.basic.document;fillColor=#f8cecc;strokeColor=#b85450;" vertex="1" parent="rz01iyQKVL57jy1Aw8ig-46">
          <mxGeometry x="440" y="118.05952380952378" width="50" height="47.223809523809514" as="geometry" />
        </mxCell>
        <mxCell id="rz01iyQKVL57jy1Aw8ig-47" style="edgeStyle=orthogonalEdgeStyle;rounded=0;orthogonalLoop=1;jettySize=auto;html=1;exitX=0;exitY=0.5;exitDx=0;exitDy=0;endArrow=none;endFill=0;" edge="1" parent="1" source="rz01iyQKVL57jy1Aw8ig-26" target="rz01iyQKVL57jy1Aw8ig-29">
          <mxGeometry relative="1" as="geometry">
            <Array as="points">
              <mxPoint x="390" y="385" />
              <mxPoint x="390" y="167" />
            </Array>
          </mxGeometry>
        </mxCell>
        <mxCell id="rz01iyQKVL57jy1Aw8ig-48" style="edgeStyle=orthogonalEdgeStyle;rounded=0;orthogonalLoop=1;jettySize=auto;html=1;exitX=0;exitY=0.5;exitDx=0;exitDy=0;endArrow=none;endFill=0;" edge="1" parent="1" source="rz01iyQKVL57jy1Aw8ig-25" target="rz01iyQKVL57jy1Aw8ig-30">
          <mxGeometry relative="1" as="geometry" />
        </mxCell>
        <mxCell id="rz01iyQKVL57jy1Aw8ig-49" style="edgeStyle=orthogonalEdgeStyle;rounded=0;orthogonalLoop=1;jettySize=auto;html=1;exitX=0;exitY=0.5;exitDx=0;exitDy=0;endArrow=none;endFill=0;" edge="1" parent="1" source="rz01iyQKVL57jy1Aw8ig-26" target="rz01iyQKVL57jy1Aw8ig-31">
          <mxGeometry relative="1" as="geometry">
            <Array as="points">
              <mxPoint x="391" y="596" />
            </Array>
          </mxGeometry>
        </mxCell>
      </root>
    </mxGraphModel>
  </diagram>
</mxfile>
